#!OML:ASF E:\motion texture\Top Level 1\Subject 1\Session 1\male.ASF
:FULLY-SPECIFIED
:DEGREES
947
root -35.2308 18.5281 3.54352 14.1307 -39.1382 -8.92814
lowerback 0.751281 5.61582 4.62833
upperback 1.48991 7.49062 -0.899595
thorax 1.82941 3.81558 -3.38298
lowerneck -11.3154 7.25231 -2.17604
upperneck 38.8319 13.573 -5.78693
head 16.1151 4.43995 0.0854092
rclavicle 7.21588e-014 -7.95139e-016
rhumerus -25.2862 -19.6322 -77.9105
rradius 23.7865
rwrist 20.0697
rhand -16.4072 -22.9076
rfingers 7.12502
rthumb 9.80733 -52.6593
lclavicle 7.21588e-014 -7.95139e-016
lhumerus -74.0063 52.1119 12.3594
lradius 14.5533
lwrist -62.6466
lhand -13.4825 29.0109
lfingers 7.12502
lthumb 12.6281 58.6092
rfemur -11.5026 -8.27971 32.3514
rtibia 20.4317
rfoot -4.0072 -19.2277
rtoes 0.499878
lfemur -26.6816 -5.58873 -4.8175
ltibia 37.5147
lfoot -8.32796 4.77409
ltoes -13.5715
948
root -35.0995 18.532 3.53249 14.0293 -38.0492 -8.82327
lowerback 0.665351 5.56132 4.58299
upperback 1.52752 7.41327 -0.890732
thorax 1.9018 3.77834 -3.34035
lowerneck -11.2839 7.23758 -2.17647
upperneck 38.6987 13.546 -5.77448
head 16.0344 4.44693 0.0865088
rclavicle -1.19271e-014 2.06736e-014
rhumerus -25.7248 -19.7777 -77.9492
rradius 23.3275
rwrist 20.4503
rhand -16.3289 -22.7912
rfingers 7.12502
rthumb 9.8828 -52.5392
lclavicle -1.19271e-014 2.06736e-014
lhumerus -73.609 51.7841 13.2988
lradius 14.8095
lwrist -61.8196
lhand -13.5418 28.7431
lfingers 7.12502
lthumb 12.5709 58.3449
rfemur -11.8395 -8.51086 32.172
rtibia 20.2813
rfoot -3.77541 -19.9885
rtoes 0.751474
lfemur -25.9109 -4.90722 -4.19411
ltibia 37.8221
lfoot -8.24675 5.65855
ltoes -12.9274
949
root -34.9683 18.5312 3.5228 13.7734 -37.0312 -8.55399
lowerback 0.634199 5.54305 4.38603
upperback 1.59263 7.38645 -0.883573
thorax 1.95753 3.76407 -3.21985
lowerneck -11.3164 7.18594 -2.29598
upperneck 38.6221 13.4923 -5.71821
head 15.9836 4.42643 0.12454
rclavicle -2.80286e-014 -7.95139e-015
rhumerus -26.2067 -20.2683 -77.8476
rradius 22.926
rwrist 21.3972
rhand -16.5362 -22.7717
rfingers 7.12502
rthumb 9.68283 -52.5292
lclavicle -2.80286e-014 -7.95139e-015
lhumerus -72.0677 51.1319 15.5558
lradius 14.9545
lwrist -60.0505
lhand -13.677 28.7252
lfingers 7.12502
lthumb 12.4405 58.3349
rfemur -12.1331 -8.74333 31.7818
rtibia 20.2181
rfoot -3.76182 -20.7916
rtoes 0.750378
lfemur -25.0229 -4.23207 -3.69105
ltibia 38.0219
lfoot -8.14297 6.42995
ltoes -12.1974
950
root -34.8351 18.5262 3.51321 13.5367 -35.9766 -8.31672
lowerback 0.666641 5.45529 4.22951
upperback 1.61866 7.27077 -0.892911
thorax 1.93704 3.70402 -3.15041
lowerneck -11.3408 7.21327 -2.32725
upperneck 38.5496 13.5488 -5.70437
head 15.9494 4.45716 0.147796
rclavicle -3.60794e-014 2.62396e-014
rhumerus -26.6341 -20.1722 -77.9775
rradius 22.5592
rwrist 21.7815
rhand -16.6222 -22.7828
rfingers 7.12502
rthumb 9.59986 -52.5441
lclavicle -3.60794e-014 2.62396e-014
lhumerus -70.4541 50.2924 17.8723
lradius 15.1872
lwrist -58.0126
lhand -12.8629 28.0753
lfingers 7.12502
lthumb 13.2253 57.6357
rfemur -12.422 -8.96751 31.4076
rtibia 20.1797
rfoot -3.68393 -21.586
rtoes 1.02831
lfemur -24.2056 -3.36317 -3.19845
ltibia 38.2403
lfoot -7.97416 7.17558
ltoes -12.6892
951
root -34.7031 18.5169 3.50336 13.3905 -34.8621 -8.22641
lowerback 0.667476 5.36056 4.16636
upperback 1.66329 7.14292 -0.833081
thorax 1.95563 3.6395 -3.05688
lowerneck -11.3733 7.21883 -2.45749
upperneck 38.4623 13.5944 -5.68239
head 15.9006 4.47141 0.189192
rclavicle 8.78628e-014 1.35174e-014
rhumerus -26.9873 -20.3354 -77.9769
rradius 22.1982
rwrist 22.3823
rhand -16.6455 -22.8595
rfingers 7.12502
rthumb 9.57738 -52.6218
lclavicle 8.78628e-014 1.35174e-014
lhumerus -67.3905 48.7703 21.9012
lradius 15.321
lwrist -54.4393
lhand -13.1984 28.5389
lfingers 7.12502
lthumb 12.902 58.1201
rfemur -12.7412 -9.28197 31.1645
rtibia 20.2111
rfoot -3.71724 -22.3441
rtoes 1.15907
lfemur -23.3999 -2.51374 -2.44778
ltibia 38.392
lfoot -7.91125 7.71339
ltoes -12.0526
